<svg xmlns="http://www.w3.org/2000/svg" viewBox="0 0 246.81 55.43"><defs><style>.cls-1{fill:#fff;}</style></defs><title>Asset 9</title><g id="Layer_2" data-name="Layer 2"><g id="Layer_1-2" data-name="Layer 1"><path class="cls-1" d="M74.44,22V37.6H70V22H64.23V17.87h16V22Z"/><path class="cls-1" d="M90.32,37.72A4.17,4.17,0,0,1,86,33.36V22.11a4.17,4.17,0,0,1,4.37-4.37h7.4a4.17,4.17,0,0,1,4.37,4.37V33.36a4.17,4.17,0,0,1-4.37,4.36Zm.06-5.22a.94.94,0,0,0,1,1h5.2a.94.94,0,0,0,1-1V23a.94.94,0,0,0-1-1h-5.2a.94.94,0,0,0-1,1Z"/><path class="cls-1" d="M129.91,37.6h-4.18V25.24l-4.79,9.07h-3.2l-4.8-9.07V37.6h-4.17V17.87h4.85l5.72,10.82,5.71-10.82h4.86Z"/><path class="cls-1" d="M140.9,37.6V31l-6.83-13.08h4.86l4.18,8.07,4.18-8.07h4.85L145.32,31V37.6Z"/><path class="cls-1" d="M159.52,32.52l-1.71,5h-4.58l7.13-19.73h5.16l7.13,19.73h-4.76l-1.72-5Zm3.39-9.89-2.16,5.71H165Z"/><path class="cls-1" d="M8.21,40.41h2.91V37.49H8.21Zm0-5.7h2.91V31.8H8.21Zm0-5.53h2.91V26.26H8.21Zm0-5.55h2.91V20.72H8.21ZM8.5,45.45h2.33V43.12H8.5ZM3.39,28.69H5.33V26.75H3.39Zm0-5.54H5.33V21.21H3.39Zm0-5H5.33V16.23H3.39Zm4.82-.23h2.91V15H8.21ZM20.15,54.72h1v-1h-1ZM3.39,34.23H5.33V32.29H3.39ZM13,24.12h3.89V20.23H13Zm0,5.54h3.89V25.78H13Zm0-11.23h3.89V14.54H13Zm0,22.46h3.89V37H13Zm.49,5.21h2.91V43.18H13.52ZM13,35.2h3.89V31.32H13Zm1,15.74h1.94V49H14ZM27.63,3.42H25.69V5.36h1.94ZM21.12.72h-1v1h1Zm6-.72h-1V1h1Zm7,9H31.22v2.91h2.92Zm-6-.72H25.2v2.92h2.92Zm-24.73,31H5.33v-2H3.39ZM33.65,4.13H31.71v2h1.94ZM44.82,10H42.48v2.33h2.34Zm-5.5-5.5h-2V6.43h2Zm.48,4.85H36.89v2.91H39.8Zm-20.13,42h1.94V49.36H19.67ZM10.83,10H8.5v2.33h2.33ZM0,33.74H1v-1H0ZM0,28.2H1v-1H0Zm0-5.54H1v-1H0ZM16.43,9.34H13.52v2.91h2.91ZM22.09,9H19.18v2.91h2.91Zm-.48-4.85H19.67v2h1.94Zm-5.67.36H14V6.43h1.94ZM33.17.72h-1v1h1Zm9.31,44.73h2.34V43.12H42.48ZM36.4,40.89h3.89V37H36.4Zm5.79-6.18h2.92V31.8H42.19Zm0-5.53h2.92V26.26H42.19Zm0-5.55h2.92V20.72H42.19ZM36.4,35.2h3.89V31.32H36.4Zm0-5.54h3.89V25.78H36.4Zm0-5.54h3.89V20.23H36.4Zm0-5.69h3.89V14.54H36.4Zm5.79,22h2.92V37.49H42.19ZM48,18.17h2V16.23H48Zm4.37,10h1v-1h-1Zm0,5.54h1v-1h-1Zm0-12v1h1v-1ZM48,34.23h2V32.29H48ZM42.19,17.94h2.92V15H42.19ZM48,23.15h2V21.21H48Zm0,16.06h2v-2H48Zm0-10.52h2V26.75H48Zm-29.29,1h3.89V25.78H18.69Zm7,22.36h1.94v-2H25.69Zm-.49-4.85h2.92V44.26H25.2Zm1,8.26h1v-1h-1ZM24.72,41.61H28.6V37.72H24.72Zm-5.54,4.84h2.91V43.54H19.18Zm17.71-.35H39.8V43.18H36.89ZM18.69,17.71h3.89V13.83H18.69Zm0,18.3h3.89V32.13H18.69Zm6-18.3H28.6V13.83H24.72Zm-6,23.9h3.89V37.72H18.69Zm12-23.9h3.88V13.83H30.74Zm0,12h3.88V25.78H30.74Zm6.63,21.28h2V49h-2ZM30.74,36h3.88V32.13H30.74Zm1,15.29h1.94V49.36H31.71Zm.48,3.42h1v-1h-1ZM30.74,41.61h3.88V37.72H30.74Zm.48,4.84h2.92V43.54H31.22Z"/><rect class="cls-1" x="182.03" y="17.77" width="1.11" height="19.83"/><path class="cls-1" d="M202.35,17.71a3.65,3.65,0,0,1,3.93,3.91v4.51a3.65,3.65,0,0,1-3.93,3.9h-6.89V37.6h-2.62V17.71ZM202,27.6a1.55,1.55,0,0,0,1.64-1.69V21.84a1.55,1.55,0,0,0-1.64-1.7h-6.56V27.6Z"/><path class="cls-1" d="M223.92,37.49,220,29.62H215.4v7.87h-2.62V17.71h9.48a3.65,3.65,0,0,1,3.93,3.91v4.07a3.57,3.57,0,0,1-3.31,3.91l3.91,7.89Zm-2-10.3a1.55,1.55,0,0,0,1.64-1.69V21.84a1.55,1.55,0,0,0-1.64-1.7H215.4v7.05Z"/><path class="cls-1" d="M236.84,37.5a3.65,3.65,0,0,1-3.93-3.9v-12a3.65,3.65,0,0,1,3.93-3.91h6.06a3.63,3.63,0,0,1,3.91,3.91v12a3.63,3.63,0,0,1-3.91,3.9Zm-1.31-4.12a1.55,1.55,0,0,0,1.64,1.69h5.41a1.54,1.54,0,0,0,1.61-1.69V21.84a1.55,1.55,0,0,0-1.61-1.7h-5.41a1.55,1.55,0,0,0-1.64,1.7Z"/></g></g></svg>